<mxfile host="app.diagrams.net" modified="2023-06-24T06:07:37.767Z" agent="Mozilla/5.0 (Windows NT 10.0; Win64; x64) AppleWebKit/537.36 (KHTML, like Gecko) Chrome/114.0.0.0 Safari/537.36" version="21.5.0" etag="v1OU7ZJsD7Rrhjwi2Ev6" type="github">
  <diagram name="Page-1" id="Cvip5U03kHhlCfFbvMq7">
    <mxGraphModel>
      <root>
        <mxCell id="0" />
        <mxCell id="1" parent="0" />
      </root>
    </mxGraphModel>
  </diagram>
</mxfile>
